<?xml version="1.0" encoding="UTF-8"?>
<svg width="700pt" height="700pt" version="1.1" viewBox="0 0 700 700" xmlns="http://www.w3.org/2000/svg" xmlns:xlink="http://www.w3.org/1999/xlink">
 <defs>
  <symbol id="v" overflow="visible">
   <path d="m18.766-1.125c-0.96875 0.5-1.9805 0.875-3.0312 1.125-1.043 0.25781-2.1367 0.39062-3.2812 0.39062-3.3984 0-6.0898-0.94531-8.0781-2.8438-1.9922-1.9062-2.9844-4.4844-2.9844-7.7344 0-3.2578 0.99219-5.8359 2.9844-7.7344 1.9883-1.9062 4.6797-2.8594 8.0781-2.8594 1.1445 0 2.2383 0.13281 3.2812 0.39062 1.0508 0.25 2.0625 0.625 3.0312 1.125v4.2188c-0.98047-0.65625-1.9453-1.1406-2.8906-1.4531-0.94922-0.3125-1.9492-0.46875-3-0.46875-1.875 0-3.3516 0.60547-4.4219 1.8125-1.0742 1.1992-1.6094 2.8555-1.6094 4.9688 0 2.1055 0.53516 3.7617 1.6094 4.9688 1.0703 1.1992 2.5469 1.7969 4.4219 1.7969 1.0508 0 2.0508-0.14844 3-0.45312 0.94531-0.3125 1.9102-0.80078 2.8906-1.4688z"/>
  </symbol>
  <symbol id="b" overflow="visible">
   <path d="m13.734-11.141c-0.4375-0.19531-0.87109-0.34375-1.2969-0.4375-0.41797-0.10156-0.83984-0.15625-1.2656-0.15625-1.2617 0-2.2305 0.40625-2.9062 1.2188-0.67969 0.80469-1.0156 1.9531-1.0156 3.4531v7.0625h-4.8906v-15.312h4.8906v2.5156c0.625-1 1.3438-1.7266 2.1562-2.1875 0.82031-0.46875 1.8008-0.70312 2.9375-0.70312 0.16406 0 0.34375 0.011719 0.53125 0.03125 0.19531 0.011719 0.47656 0.039062 0.84375 0.078125z"/>
  </symbol>
  <symbol id="a" overflow="visible">
   <path d="m17.641-7.7031v1.4062h-11.453c0.125 1.1484 0.53906 2.0078 1.25 2.5781 0.70703 0.57422 1.7031 0.85938 2.9844 0.85938 1.0312 0 2.082-0.14844 3.1562-0.45312 1.082-0.3125 2.1914-0.77344 3.3281-1.3906v3.7656c-1.1562 0.4375-2.3125 0.76562-3.4688 0.98438-1.1562 0.22656-2.3125 0.34375-3.4688 0.34375-2.7734 0-4.9297-0.70312-6.4688-2.1094-1.5312-1.4062-2.2969-3.3789-2.2969-5.9219 0-2.5 0.75391-4.4609 2.2656-5.8906 1.5078-1.4375 3.582-2.1562 6.2188-2.1562 2.4062 0 4.332 0.73047 5.7812 2.1875 1.4453 1.4492 2.1719 3.3828 2.1719 5.7969zm-5.0312-1.625c0-0.92578-0.27344-1.6719-0.8125-2.2344-0.54297-0.57031-1.25-0.85938-2.125-0.85938-0.94922 0-1.7188 0.26562-2.3125 0.79688s-0.96484 1.2969-1.1094 2.2969z"/>
  </symbol>
  <symbol id="f" overflow="visible">
   <path d="m9.2188-6.8906c-1.0234 0-1.793 0.17188-2.3125 0.51562-0.51172 0.34375-0.76562 0.85547-0.76562 1.5312 0 0.625 0.20703 1.1172 0.625 1.4688 0.41406 0.34375 0.98828 0.51562 1.7188 0.51562 0.92578 0 1.7031-0.32812 2.3281-0.98438 0.63281-0.66406 0.95312-1.4922 0.95312-2.4844v-0.5625zm7.4688-1.8438v8.7344h-4.9219v-2.2656c-0.65625 0.92969-1.3984 1.6055-2.2188 2.0312-0.82422 0.41406-1.8242 0.625-3 0.625-1.5859 0-2.8711-0.45703-3.8594-1.375-0.99219-0.92578-1.4844-2.1289-1.4844-3.6094 0-1.7891 0.61328-3.1016 1.8438-3.9375 1.2383-0.84375 3.1797-1.2656 5.8281-1.2656h2.8906v-0.39062c0-0.76953-0.30859-1.332-0.92188-1.6875-0.61719-0.36328-1.5703-0.54688-2.8594-0.54688-1.0547 0-2.0312 0.10547-2.9375 0.3125-0.89844 0.21094-1.7305 0.52344-2.5 0.9375v-3.7344c1.0391-0.25 2.0859-0.44141 3.1406-0.57812 1.0625-0.13281 2.125-0.20312 3.1875-0.20312 2.7578 0 4.75 0.54688 5.9688 1.6406 1.2266 1.0859 1.8438 2.8555 1.8438 5.3125z"/>
  </symbol>
  <symbol id="c" overflow="visible">
   <path d="m7.7031-19.656v4.3438h5.0469v3.5h-5.0469v6.5c0 0.71094 0.14062 1.1875 0.42188 1.4375s0.83594 0.375 1.6719 0.375h2.5156v3.5h-4.1875c-1.9375 0-3.3125-0.39844-4.125-1.2031-0.80469-0.8125-1.2031-2.1797-1.2031-4.1094v-6.5h-2.4219v-3.5h2.4219v-4.3438z"/>
  </symbol>
  <symbol id="k" overflow="visible">
   <path d="m12.766-13.078v-8.2031h4.9219v21.281h-4.9219v-2.2188c-0.66797 0.90625-1.4062 1.5703-2.2188 1.9844s-1.7578 0.625-2.8281 0.625c-1.8867 0-3.4336-0.75-4.6406-2.25-1.2109-1.5-1.8125-3.4258-1.8125-5.7812 0-2.3633 0.60156-4.2969 1.8125-5.7969 1.207-1.5 2.7539-2.25 4.6406-2.25 1.0625 0 2 0.21484 2.8125 0.64062 0.82031 0.42969 1.5664 1.0859 2.2344 1.9688zm-3.2188 9.9219c1.0391 0 1.8359-0.37891 2.3906-1.1406 0.55078-0.76953 0.82812-1.8828 0.82812-3.3438 0-1.457-0.27734-2.5664-0.82812-3.3281-0.55469-0.76953-1.3516-1.1562-2.3906-1.1562-1.043 0-1.8398 0.38672-2.3906 1.1562-0.55469 0.76172-0.82812 1.8711-0.82812 3.3281 0 1.4609 0.27344 2.5742 0.82812 3.3438 0.55078 0.76172 1.3477 1.1406 2.3906 1.1406z"/>
  </symbol>
  <symbol id="e" overflow="visible">
   <path d="m10.5-3.1562c1.0508 0 1.8516-0.37891 2.4062-1.1406 0.55078-0.76953 0.82812-1.8828 0.82812-3.3438 0-1.457-0.27734-2.5664-0.82812-3.3281-0.55469-0.76953-1.3555-1.1562-2.4062-1.1562-1.0547 0-1.8594 0.38672-2.4219 1.1562-0.55469 0.77344-0.82812 1.8828-0.82812 3.3281 0 1.4492 0.27344 2.5586 0.82812 3.3281 0.5625 0.77344 1.3672 1.1562 2.4219 1.1562zm-3.25-9.9219c0.67578-0.88281 1.4219-1.5391 2.2344-1.9688 0.82031-0.42578 1.7656-0.64062 2.8281-0.64062 1.8945 0 3.4453 0.75 4.6562 2.25 1.207 1.5 1.8125 3.4336 1.8125 5.7969 0 2.3555-0.60547 4.2812-1.8125 5.7812-1.2109 1.5-2.7617 2.25-4.6562 2.25-1.0625 0-2.0078-0.21094-2.8281-0.625-0.8125-0.42578-1.5586-1.0859-2.2344-1.9844v2.2188h-4.8906v-21.281h4.8906z"/>
  </symbol>
  <symbol id="j" overflow="visible">
   <path d="m0.34375-15.312h4.8906l4.125 10.391 3.5-10.391h4.8906l-6.4375 16.766c-0.64844 1.6953-1.4023 2.8828-2.2656 3.5625-0.86719 0.6875-2 1.0312-3.4062 1.0312h-2.8438v-3.2188h1.5312c0.83203 0 1.4375-0.13672 1.8125-0.40625 0.38281-0.26172 0.67969-0.73047 0.89062-1.4062l0.14062-0.42188z"/>
  </symbol>
  <symbol id="i" overflow="visible">
   <path d="m2.5781-20.406h5.25v16.422h9.25v3.9844h-14.5z"/>
  </symbol>
  <symbol id="h" overflow="visible">
   <path d="m14.312-14.828v3.7188c-1.043-0.4375-2.0547-0.76562-3.0312-0.98438-0.98047-0.21875-1.9023-0.32812-2.7656-0.32812-0.92969 0-1.6211 0.11719-2.0781 0.34375-0.44922 0.23047-0.67188 0.58984-0.67188 1.0781 0 0.38672 0.17188 0.68359 0.51562 0.89062 0.34375 0.21094 0.95703 0.36719 1.8438 0.46875l0.85938 0.125c2.5078 0.32422 4.1953 0.85156 5.0625 1.5781 0.86328 0.73047 1.2969 1.8711 1.2969 3.4219 0 1.6367-0.60547 2.8672-1.8125 3.6875-1.1992 0.8125-2.9922 1.2188-5.375 1.2188-1.0234 0-2.0742-0.078125-3.1562-0.23438-1.0742-0.15625-2.1797-0.39453-3.3125-0.71875v-3.7188c0.96875 0.48047 1.9609 0.83984 2.9844 1.0781 1.0312 0.23047 2.0781 0.34375 3.1406 0.34375 0.95703 0 1.6758-0.12891 2.1562-0.39062 0.47656-0.26953 0.71875-0.66406 0.71875-1.1875 0-0.4375-0.16797-0.75781-0.5-0.96875-0.33594-0.21875-0.99609-0.38281-1.9844-0.5l-0.85938-0.10938c-2.1797-0.26953-3.7031-0.77344-4.5781-1.5156-0.875-0.73828-1.3125-1.8594-1.3125-3.3594 0-1.625 0.55078-2.8281 1.6562-3.6094 1.1133-0.78906 2.8203-1.1875 5.125-1.1875 0.89453 0 1.8359 0.074219 2.8281 0.21875 1 0.13672 2.082 0.35156 3.25 0.64062z"/>
  </symbol>
  <symbol id="u" overflow="visible">
   <path d="m2.5781-20.406h6.6875l4.6562 10.922 4.6719-10.922h6.6875v20.406h-4.9844v-14.938l-4.7031 11.016h-3.3281l-4.7031-11.016v14.938h-4.9844z"/>
  </symbol>
  <symbol id="t" overflow="visible">
   <path d="m2.3594-15.312h4.8906v15.312h-4.8906zm0-5.9688h4.8906v4h-4.8906z"/>
  </symbol>
  <symbol id="d" overflow="visible">
   <path d="m9.6406-12.188c-1.0859 0-1.9141 0.39062-2.4844 1.1719-0.57422 0.78125-0.85938 1.9062-0.85938 3.375s0.28516 2.5938 0.85938 3.375c0.57031 0.77344 1.3984 1.1562 2.4844 1.1562 1.0625 0 1.875-0.38281 2.4375-1.1562 0.57031-0.78125 0.85938-1.9062 0.85938-3.375s-0.28906-2.5938-0.85938-3.375c-0.5625-0.78125-1.375-1.1719-2.4375-1.1719zm0-3.5c2.6328 0 4.6914 0.71484 6.1719 2.1406 1.4766 1.418 2.2188 3.3867 2.2188 5.9062 0 2.5117-0.74219 4.4805-2.2188 5.9062-1.4805 1.418-3.5391 2.125-6.1719 2.125-2.6484 0-4.7148-0.70703-6.2031-2.125-1.4922-1.4258-2.2344-3.3945-2.2344-5.9062 0-2.5195 0.74219-4.4883 2.2344-5.9062 1.4883-1.4258 3.5547-2.1406 6.2031-2.1406z"/>
  </symbol>
  <symbol id="g" overflow="visible">
   <path d="m17.75-9.3281v9.3281h-4.9219v-7.1406c0-1.3203-0.03125-2.2344-0.09375-2.7344s-0.16797-0.86719-0.3125-1.1094c-0.1875-0.3125-0.44922-0.55469-0.78125-0.73438-0.32422-0.17578-0.69531-0.26562-1.1094-0.26562-1.0234 0-1.8242 0.39844-2.4062 1.1875-0.58594 0.78125-0.875 1.8711-0.875 3.2656v7.5312h-4.8906v-15.312h4.8906v2.2344c0.73828-0.88281 1.5195-1.5391 2.3438-1.9688 0.83203-0.42578 1.75-0.64062 2.75-0.64062 1.7695 0 3.1133 0.54688 4.0312 1.6406 0.91406 1.0859 1.375 2.6562 1.375 4.7188z"/>
  </symbol>
  <symbol id="s" overflow="visible">
   <path d="m12.422-21.281v3.2188h-2.7031c-0.6875 0-1.1719 0.125-1.4531 0.375-0.27344 0.25-0.40625 0.6875-0.40625 1.3125v1.0625h4.1875v3.5h-4.1875v11.812h-4.8906v-11.812h-2.4375v-3.5h2.4375v-1.0625c0-1.6641 0.46094-2.8984 1.3906-3.7031 0.92578-0.80078 2.3672-1.2031 4.3281-1.2031z"/>
  </symbol>
  <symbol id="r" overflow="visible">
   <path d="m16.547-12.766c0.61328-0.94531 1.3477-1.6719 2.2031-2.1719 0.85156-0.5 1.7891-0.75 2.8125-0.75 1.7578 0 3.0977 0.54688 4.0156 1.6406 0.92578 1.0859 1.3906 2.6562 1.3906 4.7188v9.3281h-4.9219v-7.9844-0.35938c0.007813-0.13281 0.015625-0.32031 0.015625-0.5625 0-1.082-0.16406-1.8633-0.48438-2.3438-0.3125-0.48828-0.82422-0.73438-1.5312-0.73438-0.92969 0-1.6484 0.38672-2.1562 1.1562-0.51172 0.76172-0.77344 1.8672-0.78125 3.3125v7.5156h-4.9219v-7.9844c0-1.6953-0.14844-2.7852-0.4375-3.2656-0.29297-0.48828-0.8125-0.73438-1.5625-0.73438-0.9375 0-1.6641 0.38672-2.1719 1.1562-0.51172 0.76172-0.76562 1.8594-0.76562 3.2969v7.5312h-4.9219v-15.312h4.9219v2.2344c0.60156-0.86328 1.2891-1.5156 2.0625-1.9531 0.78125-0.4375 1.6406-0.65625 2.5781-0.65625 1.0625 0 2 0.25781 2.8125 0.76562 0.8125 0.51172 1.4258 1.2305 1.8438 2.1562z"/>
  </symbol>
  <symbol id="q" overflow="visible">
   <path d="m17.75-9.3281v9.3281h-4.9219v-7.1094c0-1.3438-0.03125-2.2656-0.09375-2.7656s-0.16797-0.86719-0.3125-1.1094c-0.1875-0.3125-0.44922-0.55469-0.78125-0.73438-0.32422-0.17578-0.69531-0.26562-1.1094-0.26562-1.0234 0-1.8242 0.39844-2.4062 1.1875-0.58594 0.78125-0.875 1.8711-0.875 3.2656v7.5312h-4.8906v-21.281h4.8906v8.2031c0.73828-0.88281 1.5195-1.5391 2.3438-1.9688 0.83203-0.42578 1.75-0.64062 2.75-0.64062 1.7695 0 3.1133 0.54688 4.0312 1.6406 0.91406 1.0859 1.375 2.6562 1.375 4.7188z"/>
  </symbol>
  <symbol id="p" overflow="visible">
   <path d="m2.5781-20.406h5.875l7.4219 14v-14h4.9844v20.406h-5.875l-7.4219-14v14h-4.9844z"/>
  </symbol>
  <symbol id="o" overflow="visible">
   <path d="m2.1875-5.9688v-9.3438h4.9219v1.5312c0 0.83594-0.007813 1.875-0.015625 3.125-0.011719 1.25-0.015625 2.0859-0.015625 2.5 0 1.2422 0.03125 2.1328 0.09375 2.6719 0.070313 0.54297 0.17969 0.93359 0.32812 1.1719 0.20703 0.32422 0.47266 0.57422 0.79688 0.75 0.32031 0.16797 0.69141 0.25 1.1094 0.25 1.0195 0 1.8203-0.39062 2.4062-1.1719 0.58203-0.78125 0.875-1.8672 0.875-3.2656v-7.5625h4.8906v15.312h-4.8906v-2.2188c-0.74219 0.89844-1.5234 1.5586-2.3438 1.9844-0.82422 0.41406-1.7344 0.625-2.7344 0.625-1.7617 0-3.1055-0.53906-4.0312-1.625-0.92969-1.082-1.3906-2.6602-1.3906-4.7344z"/>
  </symbol>
  <symbol id="n" overflow="visible">
   <path d="m2.5781-20.406h8.7344c2.5938 0 4.582 0.57812 5.9688 1.7344 1.3945 1.1484 2.0938 2.7891 2.0938 4.9219 0 2.1367-0.69922 3.7812-2.0938 4.9375-1.3867 1.1562-3.375 1.7344-5.9688 1.7344h-3.4844v7.0781h-5.25zm5.25 3.8125v5.7031h2.9219c1.0195 0 1.8047-0.25 2.3594-0.75 0.5625-0.5 0.84375-1.2031 0.84375-2.1094 0-0.91406-0.28125-1.6172-0.84375-2.1094-0.55469-0.48828-1.3398-0.73438-2.3594-0.73438z"/>
  </symbol>
  <symbol id="m" overflow="visible">
   <path d="m2.3594-15.312h4.8906v15.031c0 2.0508-0.49609 3.6172-1.4844 4.7031-0.98047 1.082-2.4062 1.625-4.2812 1.625h-2.4219v-3.2188h0.85938c0.92578 0 1.5625-0.21094 1.9062-0.625 0.35156-0.41797 0.53125-1.2461 0.53125-2.4844zm0-5.9688h4.8906v4h-4.8906z"/>
  </symbol>
  <symbol id="l" overflow="visible">
   <path d="m14.719-14.828v3.9844c-0.65625-0.45703-1.3242-0.79688-2-1.0156-0.66797-0.21875-1.3594-0.32812-2.0781-0.32812-1.3672 0-2.4336 0.40234-3.2031 1.2031-0.76172 0.79297-1.1406 1.9062-1.1406 3.3438 0 1.4297 0.37891 2.543 1.1406 3.3438 0.76953 0.79297 1.8359 1.1875 3.2031 1.1875 0.75781 0 1.4844-0.10938 2.1719-0.32812 0.6875-0.22656 1.3203-0.56641 1.9062-1.0156v4c-0.76172 0.28125-1.5391 0.48828-2.3281 0.625-0.78125 0.14453-1.5742 0.21875-2.375 0.21875-2.7617 0-4.9219-0.70703-6.4844-2.125-1.5547-1.4141-2.3281-3.3828-2.3281-5.9062 0-2.5312 0.77344-4.5039 2.3281-5.9219 1.5625-1.4141 3.7227-2.125 6.4844-2.125 0.80078 0 1.5938 0.074219 2.375 0.21875 0.78125 0.13672 1.5547 0.35156 2.3281 0.64062z"/>
  </symbol>
 </defs>
 <g>
  <path d="m387.69 188.33h-2.1289c-24.477 0.035156-48.883 2.6836-72.797 7.8945-10.754 2.0117-21.348 4.7969-31.699 8.3438-18.883 7.2266-35.234 19.82-47.039 36.234-22.398 29.793-28 62.328-14.391 97.328 6.9492 19.555 21.254 35.629 39.871 44.801 20.281 9.9414 43.297 12.84 65.406 8.2305 18.719-2.9688 36.457-10.363 51.746-21.559 7.5586-5.9922 14.617-12.711 22.398-19.266 0.44141 0.5 0.85156 1.0234 1.2344 1.5664 8.8359 12.625 18.828 24.398 29.848 35.168 4.2578 4.2812 11.074 4.6211 15.734 0.78516 14.934-12.508 29.867-25.031 44.801-37.574 0.78516-0.87109 1.3281-1.9336 1.5664-3.082 1.3633-3.7773 0.73047-7.9883-1.6797-11.199-3.4727-5.0391-6.7188-10.246-10.473-15.121h0.003906c-5.8594-8.0234-9.6992-17.34-11.203-27.16-0.83594-4.6562-1.2656-9.3789-1.2852-14.109v-124.71-0.003907c0.32422-10.73-1.1328-21.441-4.3125-31.695-4.9102-16.34-15.016-30.633-28.785-40.711-22.641-15.691-49.207-24.762-76.715-26.195-27.508-1.4336-54.871 4.8242-79.02 18.074-28.223 14.551-48.246 41.199-54.379 72.352-0.84375 3.1758-0.17969 6.5625 1.8008 9.1875 1.9766 2.625 5.0508 4.1914 8.3359 4.2539l28.281 2.5195c7.0547 0.61719 14.113 1.2891 21.168 1.8477 5.4961 0.71484 10.746-2.5039 12.598-7.7266 2.043-9.9102 7.1875-18.91 14.688-25.695 7.5039-6.7891 16.973-11.008 27.035-12.051 9.4414-1.8867 19.238-0.75 28 3.25 6.5508 2.7852 12.113 7.4844 15.957 13.477 3.8477 5.9922 5.8008 13.004 5.6016 20.121v29.398c-0.054688 0.95703-0.11328 1.9648-0.16797 3.0273zm-10.809 119.67c-4.8047 7.7383-10.84 14.641-17.863 20.441-8.4062 7.1992-19.824 9.7969-30.52 6.9414-4.418-1.0977-8.6758-2.7734-12.656-4.9844-8.9961-5.0234-15.188-13.898-16.801-24.078-2.9961-11.418-2.6055-23.461 1.1211-34.664 4.5-12.098 13.156-22.199 24.414-28.504 7.9219-5.082 16.992-8.0859 26.379-8.7383 11.594-0.72656 23.238-1.2891 34.832-1.9023h2.0156v3.3047 34.105c0.19141 13.488-3.6094 26.738-10.922 38.078z"/>
  <path d="m176.4 425.6c-5.6016-3.0234-11.199-6.1602-16.801-9.3516-3.6953-2.1836-7.3359-4.3672-11.199-6.7188-5.6016-3.6406-11.199-7.4492-16.801-11.199l0.003906-0.003906c-0.76562-0.76172-1.8281-1.1523-2.9062-1.0664-1.0742 0.085937-2.0625 0.64062-2.6953 1.5156-1.5078 1.5625-1.5078 4.0352 0 5.5977 4.3672 4.9297 8.8477 9.8008 13.496 14.559 2.6875 2.8008 5.6016 5.2656 8.457 7.9531 9.1523 8.9922 19.043 17.195 29.566 24.527 5.6016 4.0312 11.48 7.8945 17.414 11.535 7.5586 4.5938 15.176 9.2383 23.129 13.215 7.9531 3.9766 15.625 7.168 23.52 10.527l0.003907 0.003906c4.7891 2.1133 9.6875 3.9844 14.672 5.6016 9.6289 3.5742 19.59 6.1797 29.734 7.7812 9.1289 0.89453 18.199 2.7422 27.383 3.6406 5.6016 0.55859 11.703 0 17.586 0v0.28125c9.7422-0.55859 19.543-0.78516 29.23-1.793 8.0625-0.83984 16.016-2.3516 23.969-3.9766s16.238-3.6406 24.305-5.9375c5.9922-1.7344 11.816-4.0898 17.641-6.3281v0.003906c5.082-1.7773 10.074-3.8164 14.949-6.1055 6.5508-3.2461 12.938-6.8867 19.266-10.586 6.3281-3.6953 11.199-6.6641 16.238-10.305v0.003906c4.082-2.8047 7.9922-5.8555 11.707-9.1289 5.6016-4.7617 10.754-9.6875 16.016-14.672 1.6641-1.8633 1.8945-4.6055 0.55859-6.7188-1.7461-1.7383-4.2734-2.4375-6.6641-1.8477-2.5195 0.89453-4.8711 2.2383-7.3359 3.3047-11.199 4.8164-22.398 9.5195-33.602 14.449v-0.003906c-11.16 4.668-22.629 8.5586-34.328 11.648-5.6016 1.625-11.199 3.2461-16.801 4.7031-3.6406 0.89453-7.2812 1.625-11.199 2.4062-5.6016 1.2305-11.199 2.7422-16.801 3.5859-5.6016 0.83984-11.594 0.89453-17.414 1.2305-4.0898 0-8.1211 0.61719-12.207 0.67188-9.4648 0-18.984 0-28.449-0.28125-6.4961 0-12.992-0.95312-19.543-1.5117-3.8086-0.33594-7.6172-0.55859-11.199-1.1758-8.625-1.5117-17.191-3.3047-25.762-4.9297v0.003907c-9.6719-1.832-19.16-4.5508-28.336-8.1172-7.6172-3.0234-15.176-6.1055-22.68-9.2969-5.9375-2.5195-11.871-5.0391-17.641-7.8398-5.2617-3.1914-11.816-6.6094-18.48-9.8555z"/>
  <path d="m571.87 407.68c1.1797-6.2305 1.8906-12.535 2.1289-18.871 0.015625-7.1211-5.2148-13.164-12.266-14.168-5.7305-0.98828-11.539-1.4766-17.359-1.457-9.8359 0.078125-19.641 1.2266-29.23 3.418-12.156 2.8789-23.754 7.7422-34.328 14.391-1.0078 0.67187-1.3438 2.3516-2.0156 3.5859v-0.003906c1.2539 0.5 2.5742 0.80078 3.918 0.89844 4.0898-0.55859 8.0625-1.7344 12.152-2.0703 8.7344-0.78516 17.527-1.1758 26.938-1.7344l18.762 1.5664-0.003906-0.003906c3.7578 0.52734 7.1172 2.6172 9.25 5.7539 2.1328 3.1328 2.8398 7.0234 1.9531 10.711-1.6797 4.7617-2.4062 9.8555-3.9219 14.727-2.8008 8.9609-5.6016 17.863-8.7344 26.77-1.457 4.1992-3.4727 8.1758-5.0391 12.32h-0.003907c-0.21484 1.0898-0.21484 2.2148 0 3.3047 1.0781 0.0625 2.1562-0.050781 3.1953-0.33594 1.3555-0.62891 2.5742-1.5234 3.582-2.6328 5.582-6.0625 10.836-12.418 15.738-19.039 4.3789-6.7148 8.1289-13.82 11.199-21.223 1.9844-5.125 3.3555-10.461 4.0859-15.906z"/>
  <use x="70" y="644" xlink:href="#v"/>
  <use x="90.550781" y="644" xlink:href="#b"/>
  <use x="104.359375" y="644" xlink:href="#a"/>
  <use x="123.347656" y="644" xlink:href="#f"/>
  <use x="142.242188" y="644" xlink:href="#c"/>
  <use x="155.628906" y="644" xlink:href="#a"/>
  <use x="174.617188" y="644" xlink:href="#k"/>
  <use x="204.410156" y="644" xlink:href="#e"/>
  <use x="224.453125" y="644" xlink:href="#j"/>
  <use x="252.453125" y="644" xlink:href="#i"/>
  <use x="270.292969" y="644" xlink:href="#f"/>
  <use x="289.1875" y="644" xlink:href="#b"/>
  <use x="302.996094" y="644" xlink:href="#h"/>
  <use x="329.410156" y="644" xlink:href="#u"/>
  <use x="357.273438" y="644" xlink:href="#a"/>
  <use x="376.265625" y="644" xlink:href="#t"/>
  <use x="385.859375" y="644" xlink:href="#a"/>
  <use x="404.851562" y="644" xlink:href="#b"/>
  <use x="418.660156" y="644" xlink:href="#c"/>
  <use x="432.046875" y="644" xlink:href="#d"/>
  <use x="451.28125" y="644" xlink:href="#e"/>
  <use x="471.324219" y="644" xlink:href="#a"/>
  <use x="490.3125" y="644" xlink:href="#b"/>
  <use x="504.125" y="644" xlink:href="#a"/>
  <use x="523.113281" y="644" xlink:href="#g"/>
  <use x="543.046875" y="644" xlink:href="#h"/>
  <use x="70" y="672" xlink:href="#s"/>
  <use x="82.183594" y="672" xlink:href="#b"/>
  <use x="95.992188" y="672" xlink:href="#d"/>
  <use x="115.226562" y="672" xlink:href="#r"/>
  <use x="154.152344" y="672" xlink:href="#c"/>
  <use x="167.535156" y="672" xlink:href="#q"/>
  <use x="187.46875" y="672" xlink:href="#a"/>
  <use x="216.207031" y="672" xlink:href="#p"/>
  <use x="239.640625" y="672" xlink:href="#d"/>
  <use x="258.878906" y="672" xlink:href="#o"/>
  <use x="278.8125" y="672" xlink:href="#g"/>
  <use x="308.492188" y="672" xlink:href="#n"/>
  <use x="329.015625" y="672" xlink:href="#b"/>
  <use x="342.820312" y="672" xlink:href="#d"/>
  <use x="362.058594" y="672" xlink:href="#m"/>
  <use x="371.65625" y="672" xlink:href="#a"/>
  <use x="390.648438" y="672" xlink:href="#l"/>
  <use x="407.242188" y="672" xlink:href="#c"/>
 </g>
</svg>
